<?xml version="1.0" encoding="utf-8"?>
<!-- Generator: Adobe Illustrator 16.0.0, SVG Export Plug-In . SVG Version: 6.00 Build 0)  -->
<!DOCTYPE svg PUBLIC "-//W3C//DTD SVG 1.1//EN" "http://www.w3.org/Graphics/SVG/1.1/DTD/svg11.dtd">
<svg version="1.1" id="Layer_1" xmlns="http://www.w3.org/2000/svg" xmlns:xlink="http://www.w3.org/1999/xlink" x="0px" y="0px"
	 width="288px" height="67px" viewBox="0 0 288 67" enable-background="new 0 0 288 67" xml:space="preserve">
<g>
	<g>
		<path d="M26.748,0c0.35,0.717,1.034,1.467,0.967,2.142c-0.09,0.905-0.926,0.578-1.508,0.223c-3.964-2.417-6.828-0.003-9.164,2.571
			c-5.271,5.806-7.857,12.732-6.959,20.658c0.879,7.76,8.886,12.294,15.998,9.224c1.418-0.612,3.091-1.301,2.951-2.993
			c-0.472-5.697,3.528-5.941,7.187-5.587c5.294,0.512,6.403-1.449,5.594-6.346c-0.645-3.898-0.373-7.975-0.238-11.963
			c0.072-2.128,0.398-4.675,3.186-4.939c2.606-0.247,3.777,1.931,4.485,3.997c1.786,5.217,0.865,10.167-1.938,14.826
			c-2.506,4.166-1.645,11.276,1.861,14.5c2.287,2.102,4.117,1.768,5.346-1.235c3.526-8.619,3.554-8.636,12.781-4.369
			c1.031,0.477,2.091,0.78,2.723-0.062c3.949-5.261,4.054-2.445,4.154,1.754c0.059,2.444,1.564,4.829,4.251,4.739
			c3.086-0.102,3.124-2.86,3.165-5.281c0.021-1.196-1.206-2.825,0.62-3.401c0.46-0.145,1.527,1.466,2.244,2.33
			c1.397,1.686,2.891,3.765,5.199,3.341c2.742-0.502,1.539-3.257,1.844-5.062c0.422-2.489,1.806-3.968,4.239-4.184
			c3.075-0.272,5.519,0.967,7.073,3.723c2.141,3.797-0.105,9.748,5.917,11.771c0.785,0.264-0.467,1.242-1.27,1.174
			c-2.691-0.229-4.173-1.98-4.838-4.386c-0.575-2.079-0.792-4.256-1.275-6.366c-0.566-2.474-2.246-3.606-4.736-3.519
			c-2.568,0.091-2.681,2.02-2.839,3.901c-0.39,4.633-2.709,6.276-7.08,4.399c-1.662-0.714-2.583-0.296-3.832,1.004
			c-3.84,3.998-7.031,3.729-9.85-1.139c-2.298-3.968-3.199-2.098-4.349,0.518c-2.21,5.025-5.647,6.25-10.402,3.348
			c-0.825-0.504-1.587-1.553-2.639-0.944c-7.775,4.488-8.812-2.173-11.217-6.67c-0.588-1.1-0.379-3.323-1.756-3.09
			c-1.037,0.175,0.294,1.963,0.363,3.072c0.323,5.175-4.171,8.029-9.196,5.777c-1.713-0.77-2.921-2.242-5.42-1.4
			C17.573,39.695,12.439,37.307,7.748,27c0-2.667,0-5.333,0-8c2.042-7.57,5.059-14.524,12-19C22.081,0,24.415,0,26.748,0z
			 M43.689,13.743c0.645,2.215-0.777,5.1,1.307,7.397c2.349-2.22,2.45-5.277,3.037-8.153c0.033-0.161,0.083-0.331,0.064-0.489
			c-0.305-2.562-0.035-6.659-2.616-6.7c-2.753-0.043-1.252,3.955-1.776,6.141C43.595,12.407,43.689,12.924,43.689,13.743z
			 M40.892,32.411c-0.334-1.538-0.982-3.16-2.846-2.524c-1.997,0.681-5.261,0.272-5.332,3.339c-0.048,2.08,2.242,2.578,4.153,2.611
			C39.155,35.875,40.658,34.897,40.892,32.411z M60.963,35.192c-0.964,0.399-2.802-1.281-2.706,0.59
			c0.099,1.931,2.153,2.712,4.063,2.8c1.559,0.072,3.585-0.535,3.218-2.115C64.991,34.109,62.44,35.842,60.963,35.192z
			 M61.83,32.962c0.678-0.555,2.656,0.446,2.506-1.215c-0.156-1.736-2.245-1.661-3.649-1.905c-1.118-0.194-2.805-0.1-2.696,1.314
			C58.145,33.174,60.22,32.577,61.83,32.962z M34.137,28.454c-0.139-0.03-0.279-0.059-0.418-0.089
			c0.054,0.094,0.108,0.188,0.163,0.282C33.966,28.582,34.052,28.518,34.137,28.454z"/>
		<path d="M165.748,67c-2.725-1.492-4.891-3.475-5.695-6.607c-0.201-0.782-0.572-1.825,0.395-2.213
			c1.031-0.412,1.332,0.584,1.59,1.381c1.006,3.111,2.715,5.794,6.381,4.811c3.4-0.91,3.896-4.168,4.145-7.271
			c0.51-6.4-0.607-12.618-2.115-18.78c-0.574-2.343-7.453-4.437-9.123-2.881c-4.238,3.942-6.244,3.487-9.08-2.035
			c-0.592-1.153-1.248-2.273-1.873-3.409c-0.455,1.043-0.883,2.098-1.365,3.127c-1.822,3.881-3.953,3.536-6.195,0.389
			c-0.575-0.809-1.011-1.726-1.433-2.629c-0.835-1.793-1.616-3.612-2.42-5.419c-1.643,1.618-1.384,3.881-1.989,5.851
			c-0.239,0.78-0.393,1.893-1.413,1.733c-1.062-0.169-0.805-1.256-0.658-2.034c1.392-7.355,3.054-14.679,2.183-22.265
			c-0.054-0.466,0.546-1.422,0.888-1.445c1.187-0.077,1.053,1.041,1.134,1.79c0.68,6.289,1.133,12.628,3.219,18.654
			c0.675,1.95,1.17,5.188,3.409,4.938c2.592-0.289,2.475-3.631,2.581-5.812c0.245-4.985,0.078-9.989,0.12-14.985
			c0.008-0.945-0.207-2.404,0.929-2.523c1.604-0.169,1.599,1.428,1.607,2.541c0.044,5.671,0.173,11.333,1.829,16.815
			c0.525,1.741,1.271,3.428,2.043,5.08c0.494,1.059,1.242,2.168,2.547,2.119c1.604-0.061,2.037-1.544,2.543-2.757
			c1.092-2.621,0.154-5.254-0.01-7.888c-0.072-1.167,0.133-2.67,1.467-2.793c1.492-0.138,1.646,1.389,1.729,2.553
			c0.105,1.492-0.111,3.032,0.17,4.482c0.4,2.068,1.508,3.954,3.877,3.875c2.27-0.075,2.1-2.114,2.27-3.783
			c0.104-1.007-0.406-2.699,1.467-2.472c1.195,0.145,1.227,1.497,1.158,2.456c-0.488,6.775,1.99,13.137,2.664,19.737
			c0.686,6.717,1.152,13.521-5.971,17.674C167.748,67,166.748,67,165.748,67z"/>
		<path d="M264.936,43.35c-5.396,2.318-8.918-0.377-11.756-4.539c-1.018-1.489-1.578-3.282-2.441-4.887
			c-1.102-2.045-3.195-2.661-5.107-2.211c-2.008,0.472-0.818,2.514-0.926,3.883c-0.078,0.99,0.07,2.004-0.07,2.98
			c-0.184,1.256-0.107,3.02-1.801,3.1c-1.68,0.078-1.832-1.672-2.119-2.912c-0.336-1.446-0.285-2.996-0.723-4.402
			c-0.611-1.967-2.342-2.068-4.092-1.989c-2.312,0.103-2.051,1.56-1.826,3.159c0.512,3.609-0.865,6.243-4.418,7.348
			c-2.547,0.791-4.658-0.341-5.992-2.469c-1.951-3.113-1.713-6.363,0.342-9.356c0.494-0.722,2-1.646,2.393-1.408
			c4.732,2.877,10.654-1.846,15.135,2.477c1.574,1.52,0.594-0.566,0.918-0.845c0.58-0.499,1.078-1.786,1.449-1.727
			c7.395,1.169,5.039-4.303,5.438-7.874c0.131-1.154,0.02-2.368,0.338-3.461c0.754-2.592,1.713-5.487,4.996-5.326
			c3.562,0.175,4.273,3.177,4.527,6.134c0.312,3.637-0.646,6.968-2.99,9.751c-1.604,1.905-4.586,2.946-2.676,6.454
			c1.904,3.493,3.795,6.725,8.428,6.624c0.498-0.012,0.996-0.035,1.494-0.053C263.947,42.316,264.441,42.834,264.936,43.35z
			 M251.033,23.671c0.377,1.528-0.672,4.105,1.318,4.747c2.059,0.664,2.906-1.779,3.65-3.367c1.375-2.934,2.105-5.979,0.205-9.024
			c-0.59-0.945-1.553-1.592-2.463-0.793C251.266,17.409,251.314,20.51,251.033,23.671z M224.762,35.947
			c0.15,2.378,0.521,4.557,3.402,4.71c2.377,0.127,3.836-1.276,3.977-3.528c0.23-3.68-3.111-3.355-5.244-3.965
			C224.43,32.46,225.129,34.803,224.762,35.947z"/>
		<path d="M219.053,30.558c-0.332,2.836,1.486,8.569-3.729,10.036c-5.225,1.47-6.842-3.989-8.877-7.724
			c-0.393-0.718-0.854-1.973-1.297-1.979c-1.334-0.018-0.934,1.456-1.354,2.265c-1.004,1.932-0.721,5.275-3.877,4.998
			c-2.754-0.243-3.152-3.229-3.713-5.383c-2.145-8.262-2.861-16.712-2.764-25.233c0.008-0.729-0.221-1.817,0.871-1.889
			c0.244-0.017,0.73,1.297,0.848,2.04c1.219,7.72,0.643,15.653,2.713,23.264c0.445,1.634,0.293,4.365,2.391,4.311
			c1.625-0.043,1.471-2.749,1.818-4.278c0.664-2.909,0.895-5.916,1.342-8.876c0.135-0.892-0.213-2.306,1.094-2.344
			c1.193-0.035,1.389,1.294,1.445,2.272c0.287,4.931,1.697,9.498,4.408,13.622c0.996,1.517,2.111,3.274,4.318,2.695
			c1.977-0.521,2.08-2.546,2.289-4.104c1.182-8.864-1.088-17.149-4.43-25.25c-0.518-1.254-2.326-3.217-0.934-3.794
			c1.828-0.756,2.32,1.885,2.939,3.262C217.521,15.065,219.379,21.939,219.053,30.558z"/>
		<path d="M264.936,43.35c-0.494-0.517-0.986-1.033-1.48-1.551c-0.092-3.732-0.041-7.455,3.873-9.497
			c1.643-0.856,3.893-0.677,4.203,1.113c0.439,2.509-1.795,0.642-2.764,0.898c-1.982,0.526-2.59,1.913-2.822,3.642
			c-0.207,1.533-0.105,3.045,1.395,3.967c1.791,1.104,3.205,0.084,4.445-1.056c1.812-1.664,2.555-3.567,2.014-6.226
			c-1.02-5.024-1.641-10.133-2.328-15.22c-0.121-0.885-0.314-2.189,0.977-2.471c1.223-0.266,1.689,0.887,2.064,1.761
			c1.648,3.838,2.93,7.805,2.721,12.034c-0.197,3.991-0.639,7.952,1.43,11.668c0.266,0.479,0.283,1.482-0.031,1.812
			c-0.617,0.646-1.24-0.061-1.479-0.605c-1.293-2.956-2.715-2.374-4.766-0.591C270.156,44.965,267.486,44.76,264.936,43.35z
			 M275.178,29.639c-0.027,0.142-0.084,0.286-0.072,0.424c0.008,0.089,0.115,0.17,0.178,0.255c0.027-0.142,0.084-0.286,0.072-0.424
			C275.348,29.805,275.24,29.724,275.178,29.639z"/>
		<path fill="none" stroke="#000000" stroke-width="2" stroke-linecap="round" stroke-linejoin="round" stroke-miterlimit="10" d="
			M28.248,2.5c-4.181-3.665-8.226-2.321-11.428,1.068c-5.601,5.927-8.539,13.156-8.037,21.43
			c0.539,8.879,9.914,14.678,17.893,10.854c2.02-0.969,5.725-1.771,3.872-6.469c-0.849-2.154,3.06-2.681,5.189-2.318
			c6.206,1.056,7.56-0.261,7.074-6.568c-0.332-4.308,0.057-8.667-0.119-12.993c-0.077-1.884,0.621-3.514,2.089-3.863
			c1.636-0.389,2.315,1.285,3.044,2.824c2.611,5.509,1.499,11.615-3.578,17.537"/>
		<path fill="none" stroke="#000000" stroke-width="2" stroke-linecap="round" stroke-linejoin="round" stroke-miterlimit="10" d="
			M211.248,4.5c5.6,9.614,8.059,19.864,6.559,31.008c-0.27,1.984-0.5,3.805-2.572,4.445c-1.891,0.586-3.307-0.688-4.467-1.971
			c-2.461-2.725-3.527-6.224-5.02-9.482"/>
		<path fill="none" stroke="#000000" stroke-width="2" stroke-linecap="round" stroke-linejoin="round" stroke-miterlimit="10" d="
			M170.248,34.5c2.996,7.733,3.99,15.793,3.432,23.995c-0.27,3.908-2.717,7.962-6.402,7.651c-3.811-0.32-7.051-3.704-6.529-8.646"/>
		<path fill="none" stroke="#000000" stroke-width="2" stroke-linecap="round" stroke-linejoin="round" stroke-miterlimit="10" d="
			M109.248,41c-6.048,0.135-6.06-4.455-6.454-8.504c-0.401-4.12-1.865-6.731-6.548-6.543c-2.176,0.087-3.275,0.513-3.575,3.038
			c-0.956,8.056-1.997,8.396-8.923,3.509"/>
		<path fill="none" stroke="#000000" stroke-width="2" stroke-linecap="round" stroke-linejoin="round" stroke-miterlimit="10" d="
			M194.248,4.5c0.756,9.882,0.172,19.916,3.467,29.512c0.543,1.582,1.219,3.742,2.537,3.765c1.297,0.021,1.482-2.33,2.074-3.742
			c1.967-4.69,2.65-9.517,2.422-14.533"/>
		<path fill="none" stroke="#000000" stroke-width="2" stroke-linecap="round" stroke-linejoin="round" stroke-miterlimit="10" d="
			M226.248,30.5c-4.324,2.03-2.496,5.998-2.27,8.982c0.146,1.938,2.834,2.979,5.27,2.523c2.791-0.521,4.102-2.666,3.836-4.988
			c-0.213-1.871,0.191-5.329-3.852-4.602c-0.559,0.101-1.318-0.917-1.984-1.417"/>
		<path fill="none" stroke="#000000" stroke-width="2" stroke-linecap="round" stroke-linejoin="round" stroke-miterlimit="10" d="
			M139.748,23.5c1,2.667,1.718,5.495,3.114,7.935c0.75,1.31,0.898,4.046,3.368,3.483c2.058-0.47,1.815-2.851,2.502-4.425
			c0.42-0.962,0.683-1.993,1.017-2.993"/>
		<path fill="none" stroke="#000000" stroke-width="2" stroke-linecap="round" stroke-linejoin="round" stroke-miterlimit="10" d="
			M242.748,41.5c-0.699-3.377,1.203-6.546,0.631-10.021c-0.357-2.176,1.596-1.37,2.871-0.988c3.828,1.144,7.062,0.46,9.514-2.979
			c2.527-3.547,3.346-7.344,1.963-11.503c-0.455-1.366-1.285-2.792-2.967-2.451c-2.289,0.465-3.648,1.899-4.068,4.434
			c-0.672,4.036-0.832,8.01,0.057,12.01"/>
		<path fill="none" stroke="#000000" stroke-width="2" stroke-linecap="round" stroke-linejoin="round" stroke-miterlimit="10" d="
			M250.748,31c1.807,3.094,2.004,7.018,4.992,9.51c2.73,2.276,5.541,3.785,9.008,1.49"/>
		<path fill="none" stroke="#000000" stroke-width="2" stroke-linecap="round" stroke-linejoin="round" stroke-miterlimit="10" d="
			M43.748,26.5c1,3,1.478,6.334,3.129,8.917c2.171,3.396,5.301,5.878,8.871,1.083"/>
		<path fill="none" stroke="#000000" stroke-width="2" stroke-linecap="round" stroke-linejoin="round" stroke-miterlimit="10" d="
			M149.248,8.5c0.332,6,0.666,12,1,18"/>
		<path fill="none" stroke="#000000" stroke-width="2" stroke-linecap="round" stroke-linejoin="round" stroke-miterlimit="10" d="
			M67.248,33c-0.218-2.449-2.424-3.347-4.049-3.839c-1.967-0.596-5.015-1.438-6.264,0.462c-1.154,1.756-1.88,4.665-0.144,6.844
			c1.72,2.156,4.043,4.392,6.898,3.369c2.146-0.77,5.227-2.183,3.559-5.836"/>
		<path fill="none" stroke="#000000" stroke-width="2" stroke-linecap="round" stroke-linejoin="round" stroke-miterlimit="10" d="
			M40.248,28.5c1.625,2.5,3.562,5.092-0.017,7.475c-3.572,2.377-6.528,1.146-8.983-1.975"/>
		<path fill="none" stroke="#000000" stroke-width="2" stroke-linecap="round" stroke-linejoin="round" stroke-miterlimit="10" d="
			M150.748,27.5c0.666,1.5,1.305,3.014,2.006,4.497c1.041,2.2,1.971,5.06,4.512,5.341c2.838,0.313,2.912-3.234,4.482-4.838"/>
		<path fill="none" stroke="#000000" stroke-width="2" stroke-linecap="round" stroke-linejoin="round" stroke-miterlimit="10" d="
			M72.248,31.5c0.333,0.5,0.881,0.966,0.965,1.506c0.59,3.764,3.177,6.565,6.423,5.225c3.565-1.475,5.181-5.276,2.112-9.229"/>
		<path fill="none" stroke="#000000" stroke-width="2" stroke-linecap="round" stroke-linejoin="round" stroke-miterlimit="10" d="
			M272.248,16.5c2.789,5.028,0.645,10.826,2.5,16"/>
		<path fill="none" stroke="#000000" stroke-width="2" stroke-linecap="round" stroke-linejoin="round" stroke-miterlimit="10" d="
			M138.248,6.5c0.167,5.167,0.333,10.333,0.5,15.5"/>
		<path fill="none" stroke="#000000" stroke-width="2" stroke-linecap="round" stroke-linejoin="round" stroke-miterlimit="10" d="
			M272.248,34.5c-2.168-1.488-4.658-2.931-6.396,0.061c-1.377,2.367-2.459,5.587-0.018,7.848c2.201,2.038,4.646,1.141,6.971-0.842
			c2.688-2.294,3.352-4.854,2.443-8.065"/>
		<path fill="none" stroke="#000000" stroke-width="2" stroke-linecap="round" stroke-linejoin="round" stroke-miterlimit="10" d="
			M241.748,35.5c-1.586-6.825-5.977-4.302-10-3"/>
		<path fill="none" stroke="#000000" stroke-width="2" stroke-linecap="round" stroke-linejoin="round" stroke-miterlimit="10" d="
			M161.748,22.5c-0.613,3.5-0.922,7.037,1.547,9.959c1.32,1.564,2.711,3.344,5.484,2.11c2.602-1.158,1.918-3.186,1.938-5.07
			c0.01-0.998-0.303-2-0.469-3"/>
		<path fill="none" stroke="#000000" stroke-width="2" stroke-linecap="round" stroke-linejoin="round" stroke-miterlimit="10" d="
			M137.748,23.5c-1.148,3.237-1.883,6.557-2,10"/>
		<path fill="none" stroke="#000000" stroke-width="2" stroke-linecap="round" stroke-linejoin="round" stroke-miterlimit="10" d="
			M57.248,33c7.65,2.32,12.144,1.161,15.5-4"/>
		<path fill="none" stroke="#000000" stroke-width="2" stroke-linecap="round" stroke-linejoin="round" stroke-miterlimit="10" d="
			M275.748,39c1.785,1.44,0.939,4.555,3.5,5.5"/>
		<path fill="none" stroke="#000000" stroke-width="2" stroke-linecap="round" stroke-linejoin="round" stroke-miterlimit="10" d="
			M37.248,28.5c-1.437,1.756-3.7,1.243-5.5,2"/>
		<path fill="none" stroke="#000000" stroke-width="2" stroke-linecap="round" stroke-linejoin="round" stroke-miterlimit="10" d="
			M275.748,27.5c0.25,1.667,2.062,3.333,0,5"/>
	</g>
</g>
</svg>
